<?xml version="1.0" encoding="UTF-8" standalone="no"?>
<!-- Generator: Adobe Illustrator 26.4.1, SVG Export Plug-In . SVG Version: 6.00 Build 0)  -->

<svg
   version="1.1"
   id="Layer_1"
   x="0px"
   y="0px"
   viewBox="0 0 146.79873 28.865667"
   xml:space="preserve"
   sodipodi:docname="horzontal-white-logo.svg"
   width="146.79874"
   height="28.865665"
   inkscape:version="1.2.1 (9c6d41e410, 2022-07-14)"
   inkscape:export-filename="logo.svg"
   inkscape:export-xdpi="1307.91"
   inkscape:export-ydpi="1307.91"
   xmlns:inkscape="http://www.inkscape.org/namespaces/inkscape"
   xmlns:sodipodi="http://sodipodi.sourceforge.net/DTD/sodipodi-0.dtd"
   xmlns:xlink="http://www.w3.org/1999/xlink"
   xmlns="http://www.w3.org/2000/svg"
   xmlns:svg="http://www.w3.org/2000/svg"
   xmlns:rdf="http://www.w3.org/1999/02/22-rdf-syntax-ns#"
   xmlns:cc="http://creativecommons.org/ns#"
   xmlns:dc="http://purl.org/dc/elements/1.1/"><title
   id="title395">Northwest </title><defs
   id="defs57"><linearGradient
     id="linearGradient8057"
     inkscape:swatch="solid"><stop
       style="stop-color:#407061;stop-opacity:1;"
       offset="0"
       id="stop8055" /></linearGradient><defs
     id="defs37">
		<rect
   id="SVGID_1_"
   width="216"
   height="216"
   x="0"
   y="0" />
	</defs><clipPath
     id="SVGID_00000065074457586065468830000000848616987358180999_">
		<use
   xlink:href="#SVGID_1_"
   style="overflow:visible"
   id="use39" />
	</clipPath></defs><sodipodi:namedview
   id="namedview55"
   pagecolor="#ffffff"
   bordercolor="#ffffff"
   borderopacity="0"
   inkscape:showpageshadow="2"
   inkscape:pageopacity="0"
   inkscape:pagecheckerboard="0"
   inkscape:deskcolor="#d1d1d1"
   showgrid="true"
   inkscape:zoom="7.9074074"
   inkscape:cx="66.64637"
   inkscape:cy="12.772834"
   inkscape:window-width="1920"
   inkscape:window-height="1057"
   inkscape:window-x="1912"
   inkscape:window-y="-8"
   inkscape:window-maximized="1"
   inkscape:current-layer="Layer_1"><inkscape:grid
     type="xygrid"
     id="grid9536"
     originx="-0.50585288"
     originy="-0.56138904" /></sodipodi:namedview>
<style
   type="text/css"
   id="style34">
	.st0{clip-path:url(#SVGID_00000132075600832852218060000017558810385012030369_);fill:#407061;}
</style>
<path
   style="fill:#ffffff;fill-opacity:1;stroke:none"
   d="m 139.09,158.53 c -0.32,0.14 -0.71,0.26 -1.08,0.26 -0.72,0 -0.91,-0.37 -0.91,-1.32 v -3.85 h 1.99 V 152 h -1.89 c -0.11,0 -0.11,-0.05 -0.11,-0.16 v -2.29 h -1.27 c -0.15,1.76 -0.62,2.47 -1.79,2.63 v 1.43 h 0.94 c 0.11,0 0.11,0.07 0.11,0.16 V 158 c 0,1.82 0.6,2.59 2.19,2.59 0.76,0 1.6,-0.31 2.18,-0.64 z m -4.58,1.87 v -1.27 l -0.67,-0.11 c -0.2,-0.03 -0.21,-0.06 -0.21,-0.32 v -4.11 c 0,-1.77 -0.56,-2.74 -2.02,-2.74 -0.91,0 -1.69,0.43 -2.35,1.03 l -0.05,-0.03 -0.11,-0.84 h -2.34 l -0.16,1.31 0.72,0.31 c 0.13,0.05 0.17,0.16 0.17,0.34 v 4.74 c 0,0.24 -0.03,0.29 -0.21,0.32 l -0.6,0.1 v 1.29 h 3.69 v -1.27 l -0.64,-0.11 c -0.2,-0.03 -0.21,-0.06 -0.21,-0.32 v -4.32 c 0.28,-0.26 0.9,-0.6 1.39,-0.6 0.67,0 0.71,0.64 0.71,1.42 v 5.21 h 2.89 z m -12.3,-5.11 c 0.08,-1.32 0.55,-1.71 1.12,-1.71 0.55,0 0.99,0.35 1,1.71 z m 3.56,2.89 c -0.91,0.4 -1.47,0.55 -1.99,0.55 -1.1,0 -1.51,-0.76 -1.58,-1.9 h 4.09 c 0.01,-0.32 0.03,-0.89 0.03,-1.08 0,-2.79 -1.18,-3.9 -2.94,-3.9 -1.83,0 -3.32,1.39 -3.32,4.3 0,2.51 0.88,4.45 3.46,4.45 1,0 1.91,-0.34 2.74,-0.82 z m -5.51,2.22 v -1.27 l -0.67,-0.1 c -0.2,-0.03 -0.21,-0.08 -0.21,-0.34 v -4.13 c 0,-1.87 -0.54,-2.72 -1.97,-2.72 -0.94,0 -1.71,0.55 -2.15,0.97 -0.38,-0.76 -0.98,-0.97 -1.63,-0.97 -0.86,0 -1.54,0.42 -2.14,1.02 l -0.07,-0.02 -0.11,-0.84 h -2.36 l -0.15,1.31 0.72,0.31 c 0.13,0.05 0.17,0.16 0.17,0.34 v 4.74 c 0,0.24 -0.03,0.29 -0.21,0.32 l -0.6,0.11 v 1.27 h 3.71 v -1.27 l -0.65,-0.11 c -0.2,-0.05 -0.21,-0.05 -0.21,-0.32 v -4.37 c 0.27,-0.27 0.71,-0.52 1.11,-0.52 0.67,0 0.71,0.71 0.71,1.31 v 5.29 h 2.77 v -1.27 l -0.53,-0.1 c -0.2,-0.03 -0.21,-0.06 -0.21,-0.34 v -3.66 c 0,-0.27 -0.01,-0.53 -0.04,-0.79 0.35,-0.27 0.71,-0.44 1.08,-0.44 0.7,0 0.75,0.76 0.75,1.39 v 5.21 h 2.89 z m -11.75,0 v -1.27 l -0.67,-0.11 c -0.2,-0.03 -0.21,-0.06 -0.21,-0.32 v -4.11 c 0,-1.77 -0.56,-2.74 -2.02,-2.74 -0.91,0 -1.69,0.43 -2.35,1.03 l -0.05,-0.03 -0.11,-0.84 h -2.34 l -0.16,1.31 0.72,0.31 c 0.13,0.05 0.17,0.16 0.17,0.34 v 4.74 c 0,0.24 -0.03,0.29 -0.21,0.32 l -0.6,0.1 v 1.29 h 3.69 v -1.27 l -0.64,-0.11 c -0.2,-0.03 -0.21,-0.06 -0.21,-0.32 v -4.32 c 0.28,-0.26 0.9,-0.6 1.39,-0.6 0.67,0 0.71,0.64 0.71,1.42 v 5.21 h 2.89 z m -11.36,-1.5 c -0.9,0 -1.42,-0.77 -1.42,-2.72 0,-1.93 0.59,-2.59 1.47,-2.59 0.87,0 1.35,0.68 1.35,2.58 0,2.01 -0.53,2.73 -1.4,2.73 m -0.09,1.69 c 2.46,0 3.61,-1.77 3.61,-4.51 0,-2.47 -0.96,-4.24 -3.44,-4.24 -2.45,0 -3.61,1.74 -3.61,4.42 0,2.53 0.99,4.33 3.44,4.33 m -4.94,-0.19 v -1.29 l -1.32,-0.13 c -0.2,-0.02 -0.21,-0.07 -0.21,-0.32 v -4.27 c 0.2,-0.21 0.62,-0.56 0.96,-0.56 0.11,0 0.15,0.03 0.17,0.18 l 0.13,0.85 1.61,0.06 v -2.93 c -0.24,-0.08 -0.86,-0.14 -1.16,-0.14 -0.86,0 -1.44,0.63 -1.89,1.45 H 90.33 L 90.17,152 h -2.36 l -0.15,1.31 0.72,0.31 c 0.13,0.05 0.17,0.16 0.17,0.34 v 4.72 c 0,0.24 -0.03,0.29 -0.21,0.32 l -0.6,0.1 v 1.3 z m -4.74,0 v -1.27 l -0.68,-0.11 c -0.2,-0.03 -0.21,-0.06 -0.21,-0.32 V 152 h -2.77 l -0.15,1.31 0.72,0.31 c 0.13,0.05 0.17,0.16 0.17,0.34 v 4.74 c 0,0.24 -0.03,0.29 -0.21,0.32 l -0.68,0.11 v 1.27 z m -0.87,-11.13 c 0,-0.92 -0.44,-1.42 -1.22,-1.42 -0.76,0 -1.2,0.5 -1.2,1.42 0,0.92 0.44,1.45 1.2,1.45 0.78,0 1.22,-0.54 1.22,-1.45 m -6.1,11.13 2.13,-6.72 c 0.07,-0.19 0.16,-0.23 0.34,-0.27 l 0.48,-0.1 V 152 h -3.09 l -0.17,1.31 0.87,0.13 -1.42,4.59 h -0.09 l -1.36,-4.59 0.86,-0.13 V 152 h -3.63 l -0.21,1.31 0.56,0.15 c 0.16,0.05 0.21,0.08 0.28,0.27 l 2.13,6.67 z m -4.39,0 v -1.27 l -0.67,-0.11 c -0.2,-0.03 -0.21,-0.06 -0.21,-0.32 v -4.11 c 0,-1.77 -0.56,-2.74 -2.02,-2.74 -0.91,0 -1.69,0.43 -2.35,1.03 L 70.72,152.85 70.61,152 h -2.34 l -0.16,1.31 0.72,0.31 c 0.13,0.05 0.17,0.16 0.17,0.34 v 4.74 c 0,0.24 -0.03,0.29 -0.21,0.32 l -0.6,0.1 v 1.29 h 3.69 v -1.27 l -0.64,-0.11 c -0.2,-0.03 -0.21,-0.06 -0.21,-0.32 v -4.32 c 0.28,-0.26 0.9,-0.6 1.39,-0.6 0.67,0 0.71,0.64 0.71,1.42 v 5.21 h 2.89 z m -8.26,0 v -3.32 h -1.57 l -0.23,1.42 c -0.03,0.16 -0.07,0.18 -0.23,0.18 h -2.58 v -3.24 h 3.38 v -1.79 h -3.38 v -3.18 h 2.27 c 0.16,0 0.22,0.05 0.25,0.21 l 0.2,1.22 1.59,0.08 v -3.26 h -7.68 v 1.27 l 0.91,0.11 c 0.2,0.02 0.23,0.08 0.23,0.32 v 8.27 c 0,0.24 -0.03,0.29 -0.23,0.32 l -0.91,0.11 v 1.26 h 7.98 z"
   clip-path="url(#SVGID_00000065074457586065468830000000848616987358180999_)"
   id="Environment"
   transform="translate(-8.7457929,-133.97481)"
   inkscape:label="Environment" /><path
   id="the"
   style="display:inline;fill:#ffffff;fill-opacity:1;fill-rule:evenodd;stroke:none;stroke-width:0.1;stroke-linecap:butt;stroke-miterlimit:0;stroke-dasharray:none;stroke-opacity:1;paint-order:normal"
   d="m 45.271033,21.497288 c 0.08,-1.32 0.55,-1.71 1.12,-1.71 0.55,0 0.99,0.35 1,1.71 z m 3.56,2.89 c -0.91,0.4 -1.47,0.55 -1.99,0.55 -1.1,0 -1.51,-0.76 -1.58,-1.9 h 4.09 c 0.01,-0.32 0.03,-0.89 0.03,-1.08 0,-2.79 -1.18,-3.9 -2.94,-3.9 -1.83,0 -3.32,1.39 -3.32,4.3 0,2.51 0.88,4.45 3.46,4.45 1,0 1.91,-0.34 2.74,-0.82 z m -5.77,2.22 v -1.27 l -0.67,-0.11 c -0.2,-0.03 -0.22,-0.06 -0.22,-0.32 v -4.24 c 0,-1.68 -0.52,-2.61 -1.94,-2.61 -0.84,0 -1.54,0.37 -2.14,0.97 l -0.07,-0.02 v -4.56 h -2.76 l -0.15,1.31 0.74,0.31 c 0.13,0.05 0.17,0.16 0.17,0.34 v 8.51 c 0,0.24 -0.03,0.29 -0.21,0.32 l -0.6,0.11 v 1.27 h 3.69 v -1.27 l -0.64,-0.11 c -0.2,-0.03 -0.21,-0.06 -0.21,-0.32 v -4.32 c 0.33,-0.29 0.9,-0.6 1.39,-0.6 0.67,0 0.71,0.89 0.71,1.37 v 5.25 h 2.91 z m -8.45,-1.87 c -0.32,0.14 -0.71,0.26 -1.08,0.26 -0.72,0 -0.91,-0.37 -0.91,-1.32 v -3.85 h 1.99 v -1.61 h -1.89 c -0.11,0 -0.11,-0.05 -0.11,-0.16 v -2.29 h -1.27 c -0.15,1.76 -0.61,2.47 -1.79,2.63 v 1.43 h 0.94 c 0.11,0 0.11,0.07 0.11,0.16 v 4.22 c 0,1.82 0.6,2.59 2.19,2.59 0.76,0 1.61,-0.31 2.18,-0.64 z"
   inkscape:label="the" /><path
   id="path7318"
   style="display:inline;fill:#ffffff;fill-opacity:1;fill-rule:evenodd;stroke:none;stroke-width:0.1;stroke-linecap:butt;stroke-miterlimit:0;stroke-dasharray:none;stroke-opacity:1;paint-order:normal"
   d="m 145.40874,13.436328 v -1.29 l -1.32,-0.13 c -0.2,-0.02 -0.21,-0.06 -0.21,-0.32 V 7.4263266 c 0.2,-0.21 0.61,-0.56 0.96,-0.56 0.11,0 0.15,0.03 0.17,0.18 l 0.13,0.85 1.61,0.06 v -2.93 c -0.24,-0.08 -0.86,-0.14 -1.16,-0.14 -0.86,0 -1.44,0.63 -1.89,1.45 h -0.08 l -0.16,-1.29 h -2.36 l -0.15,1.31 0.72,0.31 c 0.13,0.05 0.17,0.16 0.17,0.34 v 4.7200014 c 0,0.24 -0.03,0.29 -0.21,0.32 l -0.6,0.1 v 1.3 h 4.38 z m -7.89,-1.5 c -0.9,0 -1.42,-0.77 -1.42,-2.7200014 0,-1.93 0.59,-2.6 1.47,-2.6 0.87,0 1.35,0.68 1.35,2.58 0,2.0200014 -0.53,2.7400014 -1.4,2.7400014 m -0.1,1.69 c 2.46,0 3.61,-1.77 3.61,-4.5100014 0,-2.47 -0.96,-4.24 -3.44,-4.24 -2.45,0 -3.61,1.74 -3.61,4.42 0,2.5300014 0.99,4.3300014 3.44,4.3300014 m -3.69,-0.19 v -1.27 l -1.63,-0.18 c -0.2,-0.02 -0.24,-0.07 -0.24,-0.32 V 6.6563266 h 2.22 v -1.61 h -2.11 c -0.11,0 -0.11,-0.05 -0.11,-0.16 v -1.02 c 0,-0.77 0.08,-1.21 0.75,-1.21 0.44,0 0.63,0.19 0.62,1.02 l 1.87,-0.27 c 0,-1.95 -1.15,-2.32 -2.4,-2.32 -1.85,0 -2.86,0.9 -2.86,3.08 v 0.89 h -1 v 1.61 h 0.9 c 0.11,0 0.11,0.07 0.11,0.16 v 4.9000014 c 0,0.24 -0.03,0.31 -0.22,0.34 l -0.75,0.1 v 1.29 h 4.85 z"
   inkscape:label="for" />
<metadata
   id="metadata393"><rdf:RDF><cc:Work
       rdf:about=""><dc:title>Northwest </dc:title></cc:Work></rdf:RDF></metadata><path
   style="fill:#ffffff;fill-opacity:1;stroke:none"
   d="m 154.18,130.1 c -0.36,0.37 -0.86,0.69 -1.31,0.69 -0.84,0 -1.22,-0.87 -1.22,-2.43 0,-1.43 0.39,-2.55 1.38,-2.55 0.39,0 0.82,0.21 1.15,0.48 z m 2.86,2.4 v -1.27 l -0.64,-0.11 c -0.2,-0.03 -0.21,-0.06 -0.21,-0.31 v -10.48 h -2.69 l -0.15,1.31 0.74,0.31 c 0.12,0.05 0.17,0.16 0.17,0.32 v 2.45 c -0.51,-0.45 -1.11,-0.77 -1.89,-0.77 -1.49,0 -2.84,1.22 -2.84,4.46 0,3.08 1.02,4.29 2.6,4.29 0.98,0 1.63,-0.45 2.19,-1.11 l 0.09,0.02 0.13,0.9 h 2.5 z m -7.73,0 v -1.27 l -0.67,-0.11 c -0.2,-0.03 -0.21,-0.06 -0.21,-0.32 v -4.11 c 0,-1.77 -0.56,-2.74 -2.02,-2.74 -0.91,0 -1.69,0.44 -2.35,1.03 l -0.05,-0.03 -0.11,-0.84 h -2.34 l -0.16,1.31 0.72,0.31 c 0.13,0.05 0.17,0.16 0.17,0.34 v 4.74 c 0,0.24 -0.03,0.29 -0.21,0.32 l -0.6,0.1 v 1.29 h 3.69 v -1.27 l -0.64,-0.11 c -0.2,-0.03 -0.21,-0.06 -0.21,-0.32 v -4.32 c 0.28,-0.26 0.9,-0.6 1.39,-0.6 0.67,0 0.71,0.64 0.71,1.42 v 5.21 h 2.89 z m -8.01,0 v -1.29 l -0.67,-0.11 c -0.17,-0.02 -0.19,-0.1 -0.19,-0.31 v -6.69 h -2.66 l -0.15,1.32 0.58,0.16 c 0.2,0.05 0.21,0.06 0.21,0.32 v 4.14 c -0.31,0.34 -0.79,0.74 -1.38,0.74 -0.58,0 -0.71,-0.37 -0.71,-1.35 v -5.33 h -2.74 l -0.13,1.32 0.64,0.16 c 0.2,0.05 0.21,0.08 0.21,0.34 v 3.93 c 0,1.87 0.54,2.84 1.94,2.84 1.14,0 1.83,-0.58 2.38,-1.08 l 0.07,0.02 0.11,0.87 z m -9.54,0 v -1.27 l -1.97,-0.13 c -0.2,-0.03 -0.21,-0.07 -0.21,-0.32 v -3.26 h 3.08 v -1.79 h -3.08 v -3.16 h 2.05 c 0.15,0 0.2,0.05 0.23,0.21 l 0.19,1.22 1.47,0.08 v -3.26 h -7.07 v 1.27 l 0.84,0.11 c 0.19,0.02 0.21,0.08 0.21,0.32 v 8.27 c 0,0.24 -0.03,0.29 -0.21,0.32 l -0.84,0.11 v 1.26 h 5.31 z m -8.19,-1.87 c -0.32,0.15 -0.71,0.26 -1.08,0.26 -0.72,0 -0.91,-0.37 -0.91,-1.32 v -3.85 h 1.99 v -1.61 h -1.89 c -0.11,0 -0.11,-0.05 -0.11,-0.16 v -2.29 h -1.27 c -0.15,1.76 -0.62,2.47 -1.79,2.63 v 1.43 h 0.94 c 0.11,0 0.11,0.07 0.11,0.16 v 4.22 c 0,1.82 0.6,2.59 2.19,2.59 0.76,0 1.61,-0.31 2.18,-0.64 z m -5.39,-3.88 v -2.34 c -0.38,-0.18 -1.4,-0.47 -2.46,-0.47 -1.54,0 -2.96,0.82 -2.96,2.82 0,2.11 1.47,2.4 2.6,2.64 0.68,0.15 1.22,0.34 1.22,0.98 0,0.6 -0.4,0.84 -1.11,0.84 -0.51,0 -0.87,-0.1 -1.03,-0.16 -0.12,-0.03 -0.15,-0.1 -0.16,-0.24 l -0.13,-0.92 -1.43,-0.13 v 2.34 c 0.24,0.19 1.43,0.58 2.65,0.58 1.7,0 3.02,-0.81 3.02,-2.77 0,-1.89 -1.19,-2.34 -2.25,-2.63 -0.82,-0.23 -1.55,-0.37 -1.55,-1.03 0,-0.52 0.37,-0.82 1.04,-0.82 0.36,0 0.68,0.07 0.86,0.13 0.09,0.03 0.12,0.1 0.13,0.23 l 0.13,0.84 z m -9.78,0.64 c 0.08,-1.32 0.55,-1.71 1.12,-1.71 0.55,0 0.99,0.35 1,1.71 z m 3.55,2.88 c -0.91,0.4 -1.47,0.55 -1.99,0.55 -1.1,0 -1.51,-0.76 -1.58,-1.9 h 4.09 c 0.01,-0.32 0.03,-0.89 0.03,-1.08 0,-2.79 -1.18,-3.9 -2.94,-3.9 -1.83,0 -3.32,1.39 -3.32,4.3 0,2.51 0.88,4.45 3.47,4.45 1,0 1.91,-0.34 2.74,-0.82 z m -7.72,2.23 1.65,-6.66 c 0.05,-0.21 0.13,-0.29 0.32,-0.32 l 0.48,-0.11 v -1.31 h -2.81 l -0.17,1.34 0.76,0.1 -1,4.53 h -0.08 l -1.15,-5.75 h -2.02 l -1.19,5.75 h -0.09 l -1.07,-4.53 0.75,-0.1 v -1.34 h -3.39 l -0.22,1.31 0.56,0.14 c 0.16,0.05 0.23,0.08 0.28,0.27 l 1.69,6.67 h 2.41 l 1.06,-5.4 h 0.08 l 1.04,5.4 h 2.11 z m -8.44,0 v -1.27 l -0.67,-0.11 c -0.2,-0.03 -0.21,-0.06 -0.21,-0.32 v -4.24 c 0,-1.68 -0.52,-2.61 -1.94,-2.61 -0.84,0 -1.54,0.37 -2.14,0.97 l -0.07,-0.02 v -4.56 H 88 l -0.15,1.31 0.74,0.31 c 0.13,0.05 0.17,0.16 0.17,0.34 v 8.51 c 0,0.24 -0.03,0.29 -0.21,0.32 l -0.6,0.11 v 1.27 h 3.69 v -1.27 L 91,131.11 c -0.2,-0.03 -0.21,-0.06 -0.21,-0.32 v -4.32 c 0.33,-0.29 0.9,-0.6 1.39,-0.6 0.67,0 0.71,0.89 0.71,1.37 v 5.25 h 2.9 z m -8.25,-1.87 c -0.32,0.15 -0.71,0.26 -1.08,0.26 -0.72,0 -0.91,-0.37 -0.91,-1.32 v -3.85 h 1.99 v -1.61 h -1.89 c -0.11,0 -0.11,-0.05 -0.11,-0.16 v -2.29 h -1.27 c -0.15,1.76 -0.61,2.47 -1.79,2.63 v 1.43 h 0.94 c 0.11,0 0.11,0.07 0.11,0.16 v 4.22 c 0,1.82 0.6,2.59 2.19,2.59 0.76,0 1.61,-0.31 2.18,-0.64 z m -6.55,1.87 v -1.29 l -1.32,-0.13 c -0.2,-0.02 -0.21,-0.06 -0.21,-0.32 v -4.27 c 0.2,-0.21 0.62,-0.56 0.96,-0.56 0.11,0 0.15,0.03 0.17,0.18 l 0.13,0.85 1.6,0.06 v -2.93 c -0.24,-0.08 -0.86,-0.15 -1.16,-0.15 -0.86,0 -1.44,0.63 -1.89,1.45 H 79.2 l -0.16,-1.29 h -2.35 l -0.15,1.31 0.72,0.31 c 0.13,0.05 0.17,0.16 0.17,0.34 v 4.72 c 0,0.24 -0.03,0.29 -0.21,0.32 l -0.6,0.1 v 1.3 z M 73.03,131 c -0.9,0 -1.42,-0.77 -1.42,-2.72 0,-1.93 0.59,-2.59 1.47,-2.59 0.87,0 1.35,0.68 1.35,2.58 0.01,2 -0.53,2.73 -1.4,2.73 m -0.09,1.69 c 2.46,0 3.61,-1.77 3.61,-4.51 0,-2.47 -0.96,-4.24 -3.44,-4.24 -2.45,0 -3.61,1.74 -3.61,4.42 0,2.53 0.99,4.33 3.44,4.33 m -4.15,-0.19 v -9.94 c 0,-0.24 0.01,-0.27 0.21,-0.31 l 0.9,-0.13 v -1.29 h -3.72 v 1.29 l 0.84,0.11 c 0.19,0.02 0.21,0.08 0.21,0.32 v 6.71 l -4.2,-8.43 h -3.32 v 1.26 l 0.84,0.11 c 0.19,0.02 0.21,0.08 0.21,0.32 v 8.28 c 0,0.24 -0.03,0.29 -0.21,0.32 l -0.84,0.11 v 1.26 h 3.72 v -1.26 l -0.9,-0.13 c -0.2,-0.03 -0.21,-0.06 -0.21,-0.32 v -6.71 l 4.27,8.41 h 2.2 z"
   clip-path="url(#SVGID_00000065074457586065468830000000848616987358180999_)"
   id="Northwest_Fund"
   transform="translate(-29.919773,-118.99443)"
   inkscape:label="Northwest Fund" /><path
   style="fill:#ffffff;fill-opacity:1;stroke:none;image-rendering:auto"
   d="m 118.12,99.75 c -2.41,-0.05 -4.83,0 -7.24,0 -0.6,0 -1.17,0 -1.23,-0.84 -0.17,-2.47 -1.95,-3.55 -3.95,-4.3 -2.64,-0.99 -5.33,-1.86 -8,-2.78 -1.11,-0.38 -2.15,-0.83 -2.96,-1.76 -0.69,-0.8 -0.62,-1.5 0.08,-2.18 0.74,-0.71 1.63,-1.13 2.65,-1.28 1.72,-0.26 3.44,-0.59 5.17,-0.81 1.01,-0.13 1.95,-0.43 2.83,-0.9 2.49,-1.35 2.64,-3.36 0.33,-5.04 -1.13,-0.83 -2.39,-1.48 -3.65,-2.25 5.22,-0.03 10.38,-0.08 15.54,-0.09 1.96,0 2.04,0.04 2.05,1.9 0.05,6.16 0.02,12.32 0.06,18.48 0,1.2 -0.33,1.88 -1.68,1.85 M 93.37,98.29 c -0.2,0.87 -0.77,1.47 -1.72,1.59 -0.49,0.06 -1,0.08 -1.49,0.09 -3.5,0.03 -7,-0.02 -10.49,0 0,-0.1 -7.34,0.03 -11,0 -2.22,-0.02 -2.38,-0.42 -2.4,-2.65 -0.05,-5.76 -0.08,-11.25 -0.08,-17.01 0,-2.16 0.52,-2.81 2.61,-2.74 6,0.19 12.01,-0.27 18.01,0.22 1.19,0.1 2.31,0.38 3.28,1.08 1.36,0.98 1.46,2.19 0.29,3.36 -0.85,0.85 -1.92,1.3 -3.07,1.6 -1.29,0.34 -2.6,0.61 -3.87,1 -1.2,0.37 -2.37,0.83 -3.2,1.85 -1.72,2.11 -1.18,4.42 1.35,5.4 2.56,1 5.17,1.87 7.74,2.83 1.09,0.41 2.24,0.7 3.18,1.43 0.62,0.48 1.05,1.13 0.86,1.95 M 66.1,67.53 c 0.01,-6.09 0.01,-12.18 0.05,-18.26 0.02,-2.29 0.42,-2.64 2.61,-2.64 6.01,0 12.01,0 18.02,0.01 0.5,0 1,0.04 1.5,0.05 0.72,0.02 1.03,0.38 1.03,1.09 0,2.64 0.03,5.28 0.05,8.41 -3.9,-2.01 -7.64,-3.79 -11.33,-5.69 0,1.63 0.01,2.77 0,3.82 v 3.03 l 14.92,8.82 c 0,0 9.2,-5.64 13.34,-8.14 0.62,-0.37 0.66,-0.52 1.59,-1.15 0.06,-0.81 0.09,-1.16 0.03,-1.87 0,0 0.01,-2.82 0,-4.48 0,0 -3.92,1.84 -5.74,2.73 -1.85,0.91 -3.77,1.83 -5.83,2.92 -0.05,-3.8 -0.05,-5.47 0,-8.09 0.02,-1.12 0.69,-1.4 1.63,-1.41 2.17,-0.01 4.34,-0.02 6.51,-0.01 4.25,0.01 8.51,0.03 12.77,0.05 0.47,0 1.15,-0.02 1.67,0.06 0.28,0.04 0.59,0.14 0.65,0.5 v 21.76 c -3.45,-1.63 -6.65,-3.71 -9.83,-5.79 -1.52,-1 -2.64,-1.05 -4.23,-0.04 -3.66,2.3 -7.52,4.3 -11.25,6.49 -0.83,0.49 -1.44,0.47 -2.27,0.01 -3.95,-2.15 -7.98,-4.16 -11.91,-6.35 -1.25,-0.69 -2.2,-0.69 -3.44,0.01 -3.32,1.88 -7.22,3.91 -10.53,5.67 -0.01,0.01 -0.01,-1.09 -0.01,-1.51 m 60.7,22.05 c -0.06,-15.09 -0.09,-30.18 -0.15,-45.27 -0.01,-2.97 -1.22,-4.25 -4.17,-4.47 -0.33,-0.02 -0.67,0.01 -1,0.01 -8.17,-0.03 -16.35,-0.04 -24.52,-0.1 -1.28,-0.01 -2.5,0.02 -3.55,0.86 -0.39,0.31 -0.85,0.7 -1.29,0.14 -0.99,-1.27 -2.37,-1.01 -3.69,-1.02 -3.5,-0.01 -7.01,-0.01 -10.51,-0.01 -5.09,0 -10.18,-0.02 -15.27,0.04 -2.42,0.02 -3.51,1.12 -3.68,3.47 -0.04,0.58 -0.01,1.17 -0.01,1.75 0.06,9.26 0.16,46.96 0.16,56.55 0,1.82 0.52,3.3 1.88,4.43 1.15,0.96 2.58,1.01 4.03,1.01 14.02,-0.03 28.03,-0.04 42.05,-0.05 4.92,0 9.84,0.09 14.76,0.06 3.17,-0.02 4.77,-1.55 5.05,-4.66 0.05,-0.58 0.07,-1.17 0.06,-1.75 -0.04,-3.66 -0.13,-7.32 -0.15,-10.99"
   clip-path="url(#SVGID_00000065074457586065468830000000848616987358180999_)"
   id="Logo"
   transform="matrix(0.42909069,0,0,0.42909069,-25.294553,-17.041083)"
   inkscape:label="logo" /></svg>
